<svg version="1.0" xmlns="http://www.w3.org/2000/svg" width="64.000000pt" height="64.000000pt" viewBox="0 0 200.000000 200.000000" preserveAspectRatio="xMidYMid meet">
<g transform="translate(0.000000,200.000000) scale(0.050000,-0.050000)" fill="#ffd230">
<path d="M542 3362 c-54 -35 -79 -415 -49 -765 12 -142 16 -152 80 -196 84 -58 107 -43 38 26 -45 46 -51 67 -51 197 l0 146 38 -60 c100 -160 209 -202 338 -128 90 52 162 42 238 -34 28 -28 55 -46 61 -40 6 6 27 -7 46 -29 19 -22 53 -44 76 -48 22 -5 60 -19 84 -31 59 -32 139 -8 203 61 61 67 54 71 -59 31 l-79 -28 -228 178 c-256 200 -264 209 -180 227 96 22 137 111 50 111 -43 0 -203 -137 -251 -215 -143 -230 -393 97 -345 454 15 117 14 116 92 51 32 -27 74 -50 93 -50 18 0 90 -27 160 -60 70 -33 149 -60 175 -60 27 0 54 -13 60 -29 6 -16 40 -35 74 -42 144 -32 495 -407 517 -554 7 -47 19 -105 27 -130 11 -34 5 -47 -23 -56 -171 -54 -318 -123 -368 -173 -85 -85 -54 -105 56 -35 104 66 286 139 346 139 26 0 61 -35 101 -100 34 -55 71 -100 82 -100 12 0 51 -32 88 -71 139 -147 328 -269 417 -269 84 0 59 34 -74 99 -132 65 -354 248 -468 385 -80 96 -84 88 46 104 173 20 233 79 263 256 17 100 47 112 65 26 14 -70 54 -150 75 -150 36 1 173 140 151 154 -13 9 -33 53 -45 98 -12 45 -43 113 -68 150 -79 117 -79 118 -37 118 21 0 100 -55 174 -122 l135 -122 124 8 c117 7 131 14 241 112 106 94 143 114 181 99 7 -3 14 -104 15 -225 3 -192 7 -220 38 -226 49 -10 52 424 4 517 -40 78 -38 79 -242 -72 -253 -187 -297 -190 -467 -39 -168 149 -237 173 -339 120 l-58 -29 -6 -242 -7 -242 -65 -59 c-142 -126 -284 -72 -316 122 -25 154 -407 540 -564 569 -41 8 -88 26 -105 40 -16 14 -115 59 -220 101 -104 41 -214 92 -243 113 -61 43 -58 42 -95 19z"/>
<path d="M3086 2735 c-122 -134 -72 -299 78 -260 51 14 45 36 -24 85 -71 50 -74 77 -20 145 66 85 38 109 -34 30z"/>
<path d="M500 2380 c0 -131 456 -540 604 -540 80 0 82 -23 16 -163 -33 -70 -60 -143 -60 -163 0 -19 -14 -41 -31 -47 -41 -16 -168 -216 -182 -288 -7 -32 -24 -68 -39 -81 -40 -33 -35 -86 12 -128 22 -20 40 -53 40 -73 0 -82 115 -45 247 80 220 208 253 220 253 93 l0 -90 72 0 c57 0 93 18 167 85 225 200 398 259 439 149 19 -50 118 -154 146 -154 10 0 65 -43 122 -97 149 -138 193 -163 285 -163 191 0 235 200 78 356 -87 87 -92 123 -17 124 42 0 157 -91 201 -160 79 -125 101 -140 198 -140 216 0 258 189 84 376 -102 111 -195 231 -195 253 0 6 77 11 171 11 202 0 244 18 375 157 108 116 116 157 39 186 -97 36 -225 206 -225 298 0 89 -19 97 -131 50 -70 -29 -90 -92 -57 -179 14 -36 109 -43 140 -12 14 14 41 -4 83 -57 47 -58 57 -83 40 -100 -17 -17 -17 -29 1 -47 41 -41 28 -145 -22 -193 -44 -40 -66 -43 -352 -43 -320 0 -390 -24 -202 -70 50 -12 95 -38 108 -61 11 -21 42 -72 68 -113 50 -77 46 -116 -12 -116 -19 0 -46 -18 -59 -40 -33 -52 -63 -50 -130 10 -70 61 -69 76 5 104 62 23 111 110 91 161 -16 40 -58 20 -71 -33 -21 -90 -236 -216 -306 -179 -85 46 -103 79 -103 200 -1 119 -13 138 -60 91 -89 -89 -67 -133 224 -448 91 -98 125 -150 125 -191 0 -68 -26 -71 -56 -6 -57 126 -248 204 -340 139 -58 -40 -112 -9 -202 117 -59 82 -71 88 -232 123 l-170 38 -119 -74 c-65 -40 -179 -96 -253 -123 l-134 -51 -67 65 c-91 88 -100 129 -46 202 46 63 244 537 229 551 -4 5 -32 -10 -62 -34 -29 -23 -68 -42 -86 -42 -120 1 -467 270 -553 429 -35 66 -89 97 -89 51z m2731 -122 c21 -33 -26 -71 -53 -44 -23 23 -9 66 22 66 10 0 24 -10 31 -22z"/>
<path d="M2601 2281 c-106 -106 -74 -180 80 -186 l109 -5 6 67 c13 127 -113 206 -195 124z m99 -70 c0 -61 -28 -80 -60 -41 -30 36 -12 90 29 90 20 0 31 -18 31 -49z"/>
<path d="M2096 2240 c-162 -20 -145 -43 51 -70 83 -11 95 -19 87 -51 -13 -50 0 -57 151 -81 69 -11 167 -33 217 -49 83 -27 102 -27 187 2 72 24 108 27 148 11 67 -26 386 -85 398 -74 23 23 -27 54 -131 84 -63 18 -132 43 -154 57 -77 47 -134 50 -212 10 -126 -64 -295 -41 -392 54 -85 84 -215 124 -350 107z"/>
<path d="M1384 1995 c-11 -14 -36 -65 -54 -115 -19 -49 -41 -108 -50 -130 -21 -53 -60 -243 -60 -292 0 -47 92 -139 138 -137 20 1 15 8 -15 20 -56 23 -48 443 10 534 56 89 79 178 31 120z"/>
<path d="M2546 1778 c24 -14 86 -15 190 -2 l154 19 -190 2 c-140 1 -181 -4 -154 -19z"/>
<path d="M2995 1786 c36 -5 90 -5 120 0 30 4 1 8 -65 8 -66 0 -91 -4 -55 -8z"/>
<path d="M1830 1612 c-55 -26 -136 -78 -179 -117 l-80 -69 65 9 c35 5 64 18 64 28 0 83 200 44 278 -54 24 -31 62 -60 85 -63 23 -4 67 -25 99 -47 40 -29 81 -39 133 -35 l75 7 -82 24 c-94 29 -126 60 -188 185 -92 186 -123 202 -270 132z"/>
<path d="M1930 617 c-33 -10 -222 -24 -420 -29 -491 -14 -645 -52 -553 -135 147 -133 1758 -150 2007 -21 160 83 17 148 -328 149 -244 1 -471 18 -596 45 -27 6 -77 2 -110 -9z"/>
</g>
</svg>