 <svg version="1.0" xmlns="http://www.w3.org/2000/svg"  width="128.000000pt" height="128.000000pt" viewBox="0 0 128.000000 128.000000"  preserveAspectRatio="xMidYMid meet">  <g transform="translate(0.000000,128.000000) scale(0.050000,-0.050000)" fill="#000000" stroke="none"> <path d="M1666 2461 c-57 -20 -137 -63 -178 -94 -72 -55 -75 -55 -63 -12 6 25 3 50 -6 56 -10 6 -23 -11 -30 -38 -15 -60 -107 -54 -306 20 -158 58 -161 58 -103 -3 26 -27 43 -53 38 -57 -10 -10 -232 17 -299 35 -47 14 -48 13 -10 -17 21 -17 28 -31 15 -31 -38 0 -28 -40 11 -41 19 0 56 -12 82 -27 l48 -26 -73 -45 c-114 -70 -188 -167 -103 -134 59 22 49 -23 -21 -95 -40 -41 -64 -82 -56 -95 8 -14 5 -18 -8 -10 -21 13 -51 -18 -55 -57 -12 -154 -164 -173 -313 -38 -41 36 -111 85 -155 108 l-81 41 0 -90 c0 -126 130 -218 422 -301 l108 -30 -173 6 c-149 6 -186 14 -255 60 -105 70 -105 70 -98 -39 l6 -93 110 -28 c101 -26 198 -24 345 6 68 14 124 -35 109 -95 -6 -22 -6 -56 1 -74 9 -23 21 -5 37 57 l24 90 2 -80 c2 -77 4 -78 27 -32 53 105 298 180 375 116 74 -61 111 -117 69 -103 -24 8 -10 -13 35 -54 138 -124 211 -177 245 -177 18 0 28 -9 21 -20 -7 -12 18 -20 64 -20 56 1 68 6 46 20 -23 15 -14 19 36 20 39 0 61 8 54 20 -7 11 2 20 20 20 18 0 27 9 20 20 -7 11 -2 20 11 20 13 0 18 14 11 32 -7 19 14 64 56 115 37 45 73 103 81 128 36 118 407 -15 449 -161 l18 -64 3 60 2 60 41 -50 41 -50 -11 96 c-7 60 -4 92 8 84 30 -19 7 178 -29 249 -35 66 -23 76 38 30 70 -53 98 -35 51 31 -28 40 -34 60 -17 60 14 0 -6 28 -44 61 l-69 62 60 -12 60 -12 -52 46 c-29 25 -74 63 -100 84 l-48 40 54 19 c54 19 53 20 -68 81 -139 69 -149 91 -53 125 79 28 40 37 -128 27 -111 -6 -121 19 -30 77 l65 41 -70 1 c-38 0 -127 -10 -197 -21 -143 -23 -177 -11 -104 38 154 104 150 123 -13 64z m-160 -311 c-2 -11 -24 -27 -50 -35 -31 -10 -22 -12 29 -6 49 6 75 0 75 -15 1 -13 18 -46 40 -74 l39 -50 1 85 c0 115 63 93 71 -25 0 -11 12 -40 26 -65 21 -38 20 -45 -7 -45 -18 0 -26 -10 -19 -21 7 -12 26 -17 41 -11 15 6 28 3 28 -6 0 -10 -14 -23 -31 -30 -30 -11 -28 -19 43 -129 4 -5 56 -18 93 -21 8 -1 15 -9 15 -19 0 -9 -27 -12 -60 -7 -51 7 -60 2 -60 -35 0 -24 -9 -38 -20 -31 -11 7 -20 3 -20 -9 0 -11 -14 -21 -31 -21 -19 0 -26 -9 -17 -23 9 -14 5 -18 -9 -9 -14 9 -50 -12 -85 -47 -200 -200 -576 -176 -641 42 -24 81 -26 81 -137 41 -57 -21 17 50 79 75 68 29 80 67 81 242 0 129 38 228 73 193 9 -9 7 -22 -4 -30 -11 -8 -20 -38 -20 -68 1 -48 4 -50 34 -23 30 27 34 26 41 -6 5 -28 23 -12 74 63 37 55 82 112 100 126 37 30 234 25 228 -6z"/> <path d="M1271 1958 c10 -16 7 -19 -8 -10 -29 18 -156 -58 -183 -108 -26 -49 -25 -66 2 -49 16 10 16 3 0 -27 -31 -58 -27 -189 6 -235 26 -35 28 -32 28 39 0 83 11 101 79 121 33 10 45 6 45 -17 0 -67 103 -63 165 7 50 56 68 64 136 57 99 -9 107 39 21 125 -34 34 -48 61 -35 67 13 5 7 10 -12 10 -19 1 -35 9 -35 19 0 9 -50 18 -112 21 -83 3 -108 -2 -97 -20z m227 -150 c92 -19 75 -48 -27 -48 -49 0 -135 -10 -191 -22 -126 -27 -143 -16 -56 38 68 42 165 53 274 32z"/> <path d="M2300 1041 c-60 -8 -143 -21 -183 -28 -79 -15 -237 -119 -237 -157 0 -13 -24 -59 -54 -102 l-55 -79 -119 11 c-109 10 -422 -11 -525 -36 -33 -7 -46 2 -55 40 -7 27 -24 48 -37 45 -15 -3 -23 13 -20 42 16 146 -81 194 -352 175 -332 -23 -341 -34 -173 -210 96 -101 148 -188 90 -152 -11 7 -20 3 -20 -9 0 -11 -13 -21 -28 -21 -18 0 -25 -14 -18 -40 9 -32 1 -40 -41 -40 -43 0 -55 13 -73 80 -12 44 -29 80 -38 80 -31 0 -63 -54 -51 -86 9 -22 -5 -34 -50 -44 -35 -7 -61 -26 -61 -43 0 -23 14 -27 56 -18 106 24 143 -50 74 -149 -37 -53 -56 -105 -54 -148 l3 -66 -140 9 c-139 9 -139 9 -139 -43 l0 -52 502 0 503 0 68 60 c49 43 89 60 143 60 96 1 120 18 144 101 29 99 25 119 -22 119 -35 0 -39 -5 -19 -29 31 -37 11 -71 -41 -71 -55 0 -70 54 -27 101 78 86 217 27 172 -73 -27 -60 -19 -79 39 -94 31 -8 45 -1 53 27 13 51 45 50 45 0 0 -58 -74 -102 -134 -80 -31 12 -62 12 -86 -1 -21 -11 -69 -20 -109 -20 -81 0 -84 -4 -37 -60 42 -48 378 -59 466 -14 107 54 102 225 -9 264 -32 11 -81 43 -110 72 -129 129 -378 73 -380 -86 -1 -29 -10 -59 -21 -66 -11 -7 -20 2 -20 19 0 50 -74 36 -118 -24 -67 -89 -83 -105 -102 -105 -10 0 2 21 26 48 24 26 60 71 80 100 22 32 54 52 85 52 31 0 49 11 49 31 0 66 100 129 204 129 103 0 236 -44 236 -79 0 -11 32 -34 71 -50 117 -49 155 -201 73 -296 -29 -33 -8 -35 403 -35 l433 0 0 121 c0 136 -24 195 -149 359 -46 61 -91 121 -99 136 -9 15 24 78 88 163 116 158 154 252 107 270 -34 12 -51 12 -207 -8z"/> <path d="M1740 1007 c-68 -22 -170 -28 -424 -23 -191 4 -322 0 -304 -10 109 -61 726 -35 819 35 48 36 26 36 -91 -2z"/> </g> </svg> 